<?xml version="1.0" encoding="UTF-8" standalone="no"?>
<!-- Created with Inkscape (http://www.inkscape.org/) -->

<svg
   xmlns:dc="http://purl.org/dc/elements/1.1/"
   xmlns:cc="http://creativecommons.org/ns#"
   xmlns:rdf="http://www.w3.org/1999/02/22-rdf-syntax-ns#"
   xmlns:svg="http://www.w3.org/2000/svg"
   xmlns="http://www.w3.org/2000/svg"
   xmlns:sodipodi="http://sodipodi.sourceforge.net/DTD/sodipodi-0.dtd"
   xmlns:inkscape="http://www.inkscape.org/namespaces/inkscape"
   width="744.09448819"
   height="1052.3622047"
   id="svg2"
   version="1.1"
   inkscape:version="0.91 r13725"
   sodipodi:docname="thymeleaf.svg"
   inkscape:export-filename="C:\Users\dfernandez\Desktop\thymeleaf_new.png"
   inkscape:export-xdpi="283.16165"
   inkscape:export-ydpi="283.16165">
  <defs
     id="defs4" />
  <sodipodi:namedview
     id="base"
     pagecolor="#ffffff"
     bordercolor="#666666"
     borderopacity="1.0"
     inkscape:pageopacity="0.0"
     inkscape:pageshadow="2"
     inkscape:zoom="1.1688298"
     inkscape:cx="329.62599"
     inkscape:cy="804.45425"
     inkscape:document-units="px"
     inkscape:current-layer="layer1"
     showgrid="false"
     inkscape:window-width="1440"
     inkscape:window-height="818"
     inkscape:window-x="0"
     inkscape:window-y="1"
     inkscape:window-maximized="1"
     showguides="false" />
  <metadata
     id="metadata7">
    <rdf:RDF>
      <cc:Work
         rdf:about="">
        <dc:format>image/svg+xml</dc:format>
        <dc:type
           rdf:resource="http://purl.org/dc/dcmitype/StillImage" />
        <dc:title />
      </cc:Work>
    </rdf:RDF>
  </metadata>
  <g
     inkscape:label="Layer 1"
     inkscape:groupmode="layer"
     id="layer1">
    <ellipse
       style="fill:#ffffff;fill-opacity:1"
       id="path4191"
       cy="854.56702"
       cx="130.58324"
       r="14.402563" />
    <rect
       ry="0"
       y="262.05194"
       x="1.6345654"
       height="150"
       width="740"
       id="rect4275"
       style="fill:#ffffff;fill-opacity:1;stroke:none;stroke-width:2;stroke-miterlimit:4;stroke-dasharray:none;stroke-opacity:1" />
    <text
       xml:space="preserve"
       style="font-style:normal;font-weight:normal;font-size:112.82263947px;line-height:125%;font-family:sans-serif;letter-spacing:0px;word-spacing:0px;fill:#333333;fill-opacity:1;stroke:none;stroke-width:1px;stroke-linecap:butt;stroke-linejoin:miter;stroke-opacity:1"
       x="164.37411"
       y="373.57605"
       id="text4307"
       sodipodi:linespacing="125%"
       inkscape:export-filename="C:\Users\dfernandez\Desktop\thymeleaf_new.png"
       inkscape:export-xdpi="39.758492"
       inkscape:export-ydpi="39.758492"><tspan
         sodipodi:role="line"
         id="tspan4309"
         x="164.37411"
         y="373.57605"
         style="font-style:italic;font-variant:normal;font-weight:normal;font-stretch:normal;font-size:119.32006073px;font-family:Ubuntu;-inkscape-font-specification:'Ubuntu Italic';letter-spacing:-3.21761966px;fill:#333333;fill-opacity:1"
         rotate="0 0 0 0 0 0 0 0 0 0 0">Thymeleaf </tspan></text>
    <g
       id="g4262">
      <rect
         inkscape:export-ydpi="39.758492"
         inkscape:export-xdpi="39.758492"
         inkscape:export-filename="C:\Users\dfernandez\Desktop\thymeleaf_new.png"
         style="fill:#005f0f;fill-opacity:1;stroke:none;stroke-width:1.29999995;stroke-miterlimit:4;stroke-dasharray:none;stroke-opacity:1"
         id="rect4311"
         width="119.77252"
         height="119.97438"
         x="33.805134"
         y="277.06476"
         ry="8.532815" />
      <path
         inkscape:export-ydpi="39.758492"
         inkscape:export-xdpi="39.758492"
         inkscape:export-filename="C:\Users\dfernandez\Desktop\thymeleaf_new.png"
         style="fill:#ffffff;fill-opacity:1"
         id="path4315"
         sodipodi:type="arc"
         sodipodi:cx="88.308342"
         sodipodi:cy="365.88498"
         sodipodi:rx="21.532141"
         sodipodi:ry="21.532141"
         sodipodi:start="0.1882215"
         sodipodi:end="0.18880423"
         d="m 109.46019,369.9139 a 21.532141,21.532141 0 0 1 -0.002,0.0123"
         sodipodi:open="true" />
      <path
         style="fill:#ffffff;fill-opacity:1;stroke:none;stroke-width:0.97172701;stroke-opacity:1"
         d="m 135.88622,293.42337 c -14.75059,18.0753 -32.76516,33.21447 -51.976193,46.33833 -6.245302,4.47053 -13.139806,8.44942 -17.941231,14.57134 -1.833821,3.22185 -2.276372,7.7589 0.858967,10.37319 5.221507,4.9207 13.354632,5.9911 19.895962,3.23635 9.158064,-3.48812 15.483065,-11.42829 20.799875,-19.29903 11.86434,-17.09268 19.05934,-36.75288 28.36262,-55.22018 z"
         id="path4393"
         inkscape:connector-curvature="0" />
      <path
         id="path4313"
         d="m 127.42612,299.67382 c -18.3654,14.55134 -33.055451,22.41552 -51.83759,29.18031 -5.668593,2.42556 -11.743691,5.50377 -14.377129,11.45566 -2.711352,5.63098 -1.822713,13.4835 1.287632,18.69738 -0.232691,-2.19492 0.939899,-5.74103 2.684403,-7.40579 5.78876,-6.44655 13.328608,-10.67036 19.960735,-15.5653 l 0.01587,-0.0135 0.01587,-0.0107 C 100.52464,325.47086 114.91439,313.42554 127.4261,299.67344 Z"
         style="fill:#aea99f;fill-opacity:1;stroke:none;stroke-width:0.97172701;stroke-opacity:1"
         inkscape:connector-curvature="0"
         sodipodi:nodetypes="cccccccccc" />
    </g>
    <rect
       style="fill:#005f0f;fill-opacity:1;stroke:none;stroke-width:2;stroke-miterlimit:4;stroke-dasharray:none;stroke-opacity:1"
       id="rect8143"
       width="740"
       height="150"
       x="1.6345654"
       y="636.33722"
       ry="0"
       inkscape:export-xdpi="300"
       inkscape:export-ydpi="300" />
    <text
       inkscape:export-ydpi="283.16165"
       inkscape:export-xdpi="283.16165"
       inkscape:export-filename="C:\Users\dfernandez\Desktop\thymeleaf_new.png"
       sodipodi:linespacing="125%"
       id="text4211"
       y="747.86127"
       x="165.37411"
       style="font-style:normal;font-weight:normal;font-size:112.82263947px;line-height:125%;font-family:sans-serif;letter-spacing:0px;word-spacing:0px;fill:#ececec;fill-opacity:1;stroke:none;stroke-width:1px;stroke-linecap:butt;stroke-linejoin:miter;stroke-opacity:1;"
       xml:space="preserve"><tspan
         rotate="0 0 0 0 0 0 0 0 0 0 0"
         style="font-style:italic;font-variant:normal;font-weight:normal;font-stretch:normal;font-size:119.32006073px;font-family:Ubuntu;-inkscape-font-specification:'Ubuntu Italic';letter-spacing:-3.21761966px;fill:#ececec;fill-opacity:1;"
         y="747.86127"
         x="165.37411"
         id="tspan4213"
         sodipodi:role="line">Thymeleaf </tspan></text>
    <rect
       ry="8.532815"
       y="651.35004"
       x="34.805134"
       height="119.97438"
       width="119.77252"
       id="rect4376"
       style="fill:#005f0f;fill-opacity:1;stroke:#ececec;stroke-width:4;stroke-miterlimit:4;stroke-dasharray:none;stroke-opacity:1"
       inkscape:export-filename="C:\Users\dfernandez\Desktop\thymeleaf_new.png"
       inkscape:export-xdpi="39.758492"
       inkscape:export-ydpi="39.758492" />
    <path
       sodipodi:open="true"
       d="m 110.46019,744.19921 a 21.532141,21.532141 0 0 1 -0.002,0.0123"
       sodipodi:end="0.18880423"
       sodipodi:start="0.1882215"
       sodipodi:ry="21.532141"
       sodipodi:rx="21.532141"
       sodipodi:cy="740.17029"
       sodipodi:cx="89.308342"
       sodipodi:type="arc"
       id="path4378"
       style="fill:#ffffff;fill-opacity:1;stroke:none;stroke-width:4;stroke-miterlimit:4;stroke-dasharray:none;stroke-opacity:0"
       inkscape:export-filename="C:\Users\dfernandez\Desktop\thymeleaf_new.png"
       inkscape:export-xdpi="39.758492"
       inkscape:export-ydpi="39.758492" />
    <path
       inkscape:connector-curvature="0"
       id="path4380"
       d="m 136.88622,667.70865 c -14.75059,18.0753 -32.76516,33.21447 -51.976193,46.33833 -6.245302,4.47053 -13.139806,8.44942 -17.941231,14.57134 -1.833821,3.22185 -2.276372,7.7589 0.858967,10.37319 5.221507,4.9207 13.354632,5.9911 19.895962,3.23635 9.158064,-3.48812 15.483065,-11.42829 20.799875,-19.29903 11.86434,-17.09268 19.05934,-36.75288 28.36262,-55.22018 z"
       style="fill:#ffffff;fill-opacity:1;stroke:none;stroke-width:4;stroke-miterlimit:4;stroke-dasharray:none;stroke-opacity:0" />
    <path
       sodipodi:nodetypes="cccccccccc"
       inkscape:connector-curvature="0"
       style="fill:#aea99f;fill-opacity:1;stroke:none;stroke-width:4;stroke-miterlimit:4;stroke-dasharray:none;stroke-opacity:0"
       d="m 128.42612,673.9591 c -18.3654,14.55134 -33.055451,22.41552 -51.83759,29.18031 -5.668593,2.42556 -11.743691,5.50377 -14.377129,11.45566 -2.711352,5.63098 -1.822713,13.4835 1.287632,18.69738 -0.232691,-2.19492 0.939899,-5.74103 2.684403,-7.40579 5.78876,-6.44655 13.328608,-10.67036 19.960735,-15.5653 l 0.01587,-0.0135 0.01587,-0.0107 C 101.52464,699.75614 115.91439,687.71082 128.4261,673.95872 Z"
       id="path4382" />
    <rect
       ry="0"
       y="823.47986"
       x="1.6345654"
       height="150"
       width="740"
       id="rect8177"
       style="fill:#333333;fill-opacity:1;stroke:none;stroke-width:2;stroke-miterlimit:4;stroke-dasharray:none;stroke-opacity:1"
       inkscape:export-xdpi="300"
       inkscape:export-ydpi="300" />
    <text
       xml:space="preserve"
       style="font-style:normal;font-weight:normal;font-size:112.82263947px;line-height:125%;font-family:sans-serif;letter-spacing:0px;word-spacing:0px;fill:#ececec;fill-opacity:1;stroke:none;stroke-width:1px;stroke-linecap:butt;stroke-linejoin:miter;stroke-opacity:1;"
       x="165.37411"
       y="935.00391"
       id="text4244"
       sodipodi:linespacing="125%"
       inkscape:export-filename="C:\Users\dfernandez\Desktop\thymeleaf_new.png"
       inkscape:export-xdpi="300"
       inkscape:export-ydpi="300"><tspan
         sodipodi:role="line"
         id="tspan4246"
         x="165.37411"
         y="935.00391"
         style="font-style:italic;font-variant:normal;font-weight:normal;font-stretch:normal;font-size:119.32006073px;font-family:Ubuntu;-inkscape-font-specification:'Ubuntu Italic';letter-spacing:-3.21761966px;fill:#ececec;fill-opacity:1;"
         rotate="0 0 0 0 0 0 0 0 0 0 0">Thymeleaf </tspan></text>
    <g
       id="g4301"
       transform="matrix(1.5345042,0,0,1.5345042,204.55993,-397.33986)"
       inkscape:export-xdpi="489.68549"
       inkscape:export-ydpi="489.68549">
      <rect
         ry="8.532815"
         y="277.06476"
         x="33.805134"
         height="119.97438"
         width="119.77252"
         id="rect4303"
         style="fill:#005f0f;fill-opacity:1;stroke:none;stroke-width:1.29999995;stroke-miterlimit:4;stroke-dasharray:none;stroke-opacity:1"
         inkscape:export-filename="C:\Users\dfernandez\Desktop\thymeleaf_new.png"
         inkscape:export-xdpi="39.758492"
         inkscape:export-ydpi="39.758492" />
      <path
         sodipodi:open="true"
         d="m 109.46019,369.9139 a 21.532141,21.532141 0 0 1 -0.002,0.0123"
         sodipodi:end="0.18880423"
         sodipodi:start="0.1882215"
         sodipodi:ry="21.532141"
         sodipodi:rx="21.532141"
         sodipodi:cy="365.88498"
         sodipodi:cx="88.308342"
         sodipodi:type="arc"
         id="path4305"
         style="fill:#ffffff;fill-opacity:1"
         inkscape:export-filename="C:\Users\dfernandez\Desktop\thymeleaf_new.png"
         inkscape:export-xdpi="39.758492"
         inkscape:export-ydpi="39.758492" />
      <path
         inkscape:connector-curvature="0"
         id="path4307"
         d="m 135.88622,293.42337 c -14.75059,18.0753 -32.76516,33.21447 -51.976193,46.33833 -6.245302,4.47053 -13.139806,8.44942 -17.941231,14.57134 -1.833821,3.22185 -2.276372,7.7589 0.858967,10.37319 5.221507,4.9207 13.354632,5.9911 19.895962,3.23635 9.158064,-3.48812 15.483065,-11.42829 20.799875,-19.29903 11.86434,-17.09268 19.05934,-36.75288 28.36262,-55.22018 z"
         style="fill:#ffffff;fill-opacity:1;stroke:none;stroke-width:0.97172701;stroke-opacity:1" />
      <path
         sodipodi:nodetypes="cccccccccc"
         inkscape:connector-curvature="0"
         style="fill:#aea99f;fill-opacity:1;stroke:none;stroke-width:0.97172701;stroke-opacity:1"
         d="m 127.42612,299.67382 c -18.3654,14.55134 -33.055451,22.41552 -51.83759,29.18031 -5.668593,2.42556 -11.743691,5.50377 -14.377129,11.45566 -2.711352,5.63098 -1.822713,13.4835 1.287632,18.69738 -0.232691,-2.19492 0.939899,-5.74103 2.684403,-7.40579 5.78876,-6.44655 13.328608,-10.67036 19.960735,-15.5653 l 0.01587,-0.0135 0.01587,-0.0107 C 100.52464,325.47086 114.91439,313.42554 127.4261,299.67344 Z"
         id="path4309" />
    </g>
    <flowRoot
       xml:space="preserve"
       id="flowRoot4165"
       style="fill:black;stroke:none;stroke-opacity:1;stroke-width:1px;stroke-linejoin:miter;stroke-linecap:butt;fill-opacity:1;font-family:sans-serif;font-style:normal;font-weight:normal;font-size:40px;line-height:125%;letter-spacing:0px;word-spacing:0px"><flowRegion
         id="flowRegion4167"><rect
           id="rect4169"
           width="713.07056"
           height="576.95026"
           x="21.229771"
           y="241.88445" /></flowRegion><flowPara
         id="flowPara4171"></flowPara></flowRoot>    <rect
       style="fill:#ececec;fill-opacity:1;stroke:none;stroke-width:2;stroke-miterlimit:4;stroke-dasharray:none;stroke-opacity:1"
       id="rect4182"
       width="740"
       height="150"
       x="1.6345654"
       y="449.19458"
       ry="0" />
    <text
       inkscape:export-ydpi="39.758492"
       inkscape:export-xdpi="39.758492"
       inkscape:export-filename="C:\Users\dfernandez\Desktop\thymeleaf_new.png"
       sodipodi:linespacing="125%"
       id="text4186"
       y="560.71869"
       x="164.37411"
       style="font-style:normal;font-weight:normal;font-size:112.82263947px;line-height:125%;font-family:sans-serif;letter-spacing:0px;word-spacing:0px;fill:#333333;fill-opacity:1;stroke:none;stroke-width:1px;stroke-linecap:butt;stroke-linejoin:miter;stroke-opacity:1"
       xml:space="preserve"><tspan
         rotate="0 0 0 0 0 0 0 0 0 0 0"
         style="font-style:italic;font-variant:normal;font-weight:normal;font-stretch:normal;font-size:119.32006073px;font-family:Ubuntu;-inkscape-font-specification:'Ubuntu Italic';letter-spacing:-3.21761966px;fill:#333333;fill-opacity:1"
         y="560.71869"
         x="164.37411"
         id="tspan4188"
         sodipodi:role="line">Thymeleaf </tspan></text>
    <g
       id="g4361">
      <rect
         ry="8.532815"
         y="464.2074"
         x="33.805134"
         height="119.97438"
         width="119.77252"
         id="rect4270"
         style="fill:#005f0f;fill-opacity:1;stroke:none;stroke-width:1.29999995;stroke-miterlimit:4;stroke-dasharray:none;stroke-opacity:1"
         inkscape:export-filename="C:\Users\dfernandez\Desktop\thymeleaf_new.png"
         inkscape:export-xdpi="39.758492"
         inkscape:export-ydpi="39.758492" />
      <path
         sodipodi:open="true"
         d="m 109.46019,557.05657 a 21.532141,21.532141 0 0 1 -0.002,0.0123"
         sodipodi:end="0.18880423"
         sodipodi:start="0.1882215"
         sodipodi:ry="21.532141"
         sodipodi:rx="21.532141"
         sodipodi:cy="553.02765"
         sodipodi:cx="88.308342"
         sodipodi:type="arc"
         id="path4272"
         style="fill:#ffffff;fill-opacity:1"
         inkscape:export-filename="C:\Users\dfernandez\Desktop\thymeleaf_new.png"
         inkscape:export-xdpi="39.758492"
         inkscape:export-ydpi="39.758492" />
      <path
         inkscape:connector-curvature="0"
         id="path4274"
         d="m 135.88622,480.56601 c -14.75059,18.0753 -32.76516,33.21447 -51.976193,46.33833 -6.245302,4.47053 -13.139806,8.44942 -17.941231,14.57134 -1.833821,3.22185 -2.276372,7.7589 0.858967,10.37319 5.221507,4.9207 13.354632,5.9911 19.895962,3.23635 9.158064,-3.48812 15.483065,-11.42829 20.799875,-19.29903 11.86434,-17.09268 19.05934,-36.75288 28.36262,-55.22018 z"
         style="fill:#ffffff;fill-opacity:1;stroke:none;stroke-width:0.97172701;stroke-opacity:1" />
      <path
         sodipodi:nodetypes="cccccccccc"
         inkscape:connector-curvature="0"
         style="fill:#aea99f;fill-opacity:1;stroke:none;stroke-width:0.97172701;stroke-opacity:1"
         d="m 127.42612,486.81646 c -18.3654,14.55134 -33.055451,22.41552 -51.83759,29.18031 -5.668593,2.42556 -11.743691,5.50377 -14.377129,11.45566 -2.711352,5.63098 -1.822713,13.4835 1.287632,18.69738 -0.232691,-2.19492 0.939899,-5.74103 2.684403,-7.40579 5.78876,-6.44655 13.328608,-10.67036 19.960735,-15.5653 l 0.01587,-0.0135 0.01587,-0.0107 C 100.52464,512.6135 114.91439,500.56818 127.4261,486.81608 Z"
         id="path4276" />
    </g>
    <rect
       inkscape:export-ydpi="39.758492"
       inkscape:export-xdpi="39.758492"
       inkscape:export-filename="C:\Users\dfernandez\Desktop\thymeleaf_new.png"
       style="fill:#005f0f;fill-opacity:1;stroke:#ececec;stroke-width:4;stroke-miterlimit:4;stroke-dasharray:none;stroke-opacity:1"
       id="rect4415"
       width="119.77252"
       height="119.97438"
       x="34.805134"
       y="838.49268"
       ry="8.532815" />
    <path
       inkscape:export-ydpi="39.758492"
       inkscape:export-xdpi="39.758492"
       inkscape:export-filename="C:\Users\dfernandez\Desktop\thymeleaf_new.png"
       style="fill:#ffffff;fill-opacity:1;stroke:none;stroke-width:4;stroke-miterlimit:4;stroke-dasharray:none;stroke-opacity:0"
       id="path4417"
       sodipodi:type="arc"
       sodipodi:cx="89.308342"
       sodipodi:cy="927.31293"
       sodipodi:rx="21.532141"
       sodipodi:ry="21.532141"
       sodipodi:start="0.1882215"
       sodipodi:end="0.18880423"
       d="m 110.46019,931.34185 a 21.532141,21.532141 0 0 1 -0.002,0.0123"
       sodipodi:open="true" />
    <path
       style="fill:#ffffff;fill-opacity:1;stroke:none;stroke-width:4;stroke-miterlimit:4;stroke-dasharray:none;stroke-opacity:0"
       d="m 136.88622,854.85129 c -14.75059,18.0753 -32.76516,33.21447 -51.976193,46.33833 -6.245302,4.47053 -13.139806,8.44942 -17.941231,14.57134 -1.833821,3.22185 -2.276372,7.7589 0.858967,10.37319 5.221507,4.9207 13.354632,5.9911 19.895962,3.23635 9.158064,-3.48812 15.483065,-11.42829 20.799875,-19.29903 11.86434,-17.09268 19.05934,-36.75288 28.36262,-55.22018 z"
       id="path4419"
       inkscape:connector-curvature="0" />
    <path
       id="path4421"
       d="m 128.42612,861.10174 c -18.3654,14.55134 -33.055451,22.41552 -51.83759,29.18031 -5.668593,2.42556 -11.743691,5.50377 -14.377129,11.45566 -2.711352,5.63098 -1.822713,13.4835 1.287632,18.69738 -0.232691,-2.19492 0.939899,-5.74103 2.684403,-7.40579 5.78876,-6.44655 13.328608,-10.67036 19.960735,-15.5653 l 0.01587,-0.0135 0.01587,-0.0107 C 101.52464,886.89878 115.91439,874.85346 128.4261,861.10136 Z"
       style="fill:#aea99f;fill-opacity:1;stroke:none;stroke-width:4;stroke-miterlimit:4;stroke-dasharray:none;stroke-opacity:0"
       inkscape:connector-curvature="0"
       sodipodi:nodetypes="cccccccccc" />
  </g>
</svg>
