<?xml version="1.0" encoding="UTF-8" standalone="no"?>
<!-- Created with Inkscape (http://www.inkscape.org/) -->

<svg
   xmlns:dc="http://purl.org/dc/elements/1.1/"
   xmlns:cc="http://creativecommons.org/ns#"
   xmlns:rdf="http://www.w3.org/1999/02/22-rdf-syntax-ns#"
   xmlns:svg="http://www.w3.org/2000/svg"
   xmlns="http://www.w3.org/2000/svg"
   xmlns:sodipodi="http://sodipodi.sourceforge.net/DTD/sodipodi-0.dtd"
   xmlns:inkscape="http://www.inkscape.org/namespaces/inkscape"
   width="744.09448819"
   height="1052.3622047"
   id="svg2"
   version="1.1"
   inkscape:version="0.91 r13725"
   sodipodi:docname="thymeleaf.svg"
   inkscape:export-filename="C:\Users\dfernandez\Desktop\thymeleaf_new.png"
   inkscape:export-xdpi="283.16165"
   inkscape:export-ydpi="283.16165">
  <defs
     id="defs4" />
  <sodipodi:namedview
     id="base"
     pagecolor="#ffffff"
     bordercolor="#666666"
     borderopacity="1.0"
     inkscape:pageopacity="0.0"
     inkscape:pageshadow="2"
     inkscape:zoom="0.80076228"
     inkscape:cx="371.63457"
     inkscape:cy="639.51583"
     inkscape:document-units="px"
     inkscape:current-layer="layer1"
     showgrid="false"
     inkscape:window-width="1440"
     inkscape:window-height="818"
     inkscape:window-x="0"
     inkscape:window-y="1"
     inkscape:window-maximized="1"
     showguides="false" />
  <metadata
     id="metadata7">
    <rdf:RDF>
      <cc:Work
         rdf:about="">
        <dc:format>image/svg+xml</dc:format>
        <dc:type
           rdf:resource="http://purl.org/dc/dcmitype/StillImage" />
        <dc:title />
      </cc:Work>
    </rdf:RDF>
  </metadata>
  <g
     inkscape:label="Layer 1"
     inkscape:groupmode="layer"
     id="layer1">
    <rect
       ry="0"
       y="262.05194"
       x="1.6345654"
       height="150"
       width="740"
       id="rect4275"
       style="fill:#ffffff;fill-opacity:1;stroke:none;stroke-width:2;stroke-miterlimit:4;stroke-dasharray:none;stroke-opacity:1" />
    <ellipse
       style="fill:#ffffff;fill-opacity:1"
       id="path4191"
       cy="854.56702"
       cx="130.58324"
       r="14.402563" />
    <g
       id="g4277"
       transform="translate(-2.2198914,0.8686142)">
      <text
         inkscape:export-ydpi="39.758492"
         inkscape:export-xdpi="39.758492"
         inkscape:export-filename="C:\Users\dfernandez\Desktop\thymeleaf_new.png"
         sodipodi:linespacing="125%"
         id="text4307"
         y="372.70743"
         x="174.59401"
         style="font-style:normal;font-weight:normal;font-size:112.82263947px;line-height:125%;font-family:sans-serif;letter-spacing:0px;word-spacing:0px;fill:#333333;fill-opacity:1;stroke:none;stroke-width:1px;stroke-linecap:butt;stroke-linejoin:miter;stroke-opacity:1"
         xml:space="preserve"><tspan
           dy="0"
           rotate="0 0 0 0 0 0 0 0 0 0 0"
           dx="0"
           style="font-style:italic;font-variant:normal;font-weight:normal;font-stretch:normal;font-size:119.32006073px;font-family:Ubuntu;-inkscape-font-specification:'Ubuntu Italic';letter-spacing:-3.21761966px;fill:#333333;fill-opacity:1"
           y="372.70743"
           x="174.59401"
           id="tspan4309"
           sodipodi:role="line">thymeleaf </tspan></text>
      <rect
         inkscape:export-ydpi="39.758492"
         inkscape:export-xdpi="39.758492"
         inkscape:export-filename="C:\Users\dfernandez\Desktop\thymeleaf_new.png"
         style="fill:#005f0f;fill-opacity:1;stroke:none;stroke-width:1.29999995;stroke-miterlimit:4;stroke-dasharray:none;stroke-opacity:1"
         id="rect4311"
         width="119.77252"
         height="119.97438"
         x="44.025024"
         y="276.19614"
         ry="8.532815" />
      <path
         inkscape:export-ydpi="39.758492"
         inkscape:export-xdpi="39.758492"
         inkscape:export-filename="C:\Users\dfernandez\Desktop\thymeleaf_new.png"
         style="fill:#ffffff;fill-opacity:1"
         id="path4315"
         sodipodi:type="arc"
         sodipodi:cx="98.528236"
         sodipodi:cy="365.01636"
         sodipodi:rx="21.532141"
         sodipodi:ry="21.532141"
         sodipodi:start="0.1882215"
         sodipodi:end="0.18880423"
         d="m 119.68009,369.04528 a 21.532141,21.532141 0 0 1 -0.002,0.0123"
         sodipodi:open="true" />
      <g
         inkscape:export-ydpi="39.758492"
         inkscape:export-xdpi="39.758492"
         id="g4207">
        <path
           inkscape:connector-curvature="0"
           id="path4393"
           d="m 146.10611,292.55476 c -14.75059,18.0753 -32.76516,33.21447 -51.976192,46.33833 -6.245302,4.47053 -13.139806,8.44942 -17.941231,14.57134 -1.833821,3.22185 -2.276372,7.7589 0.858967,10.37319 5.221507,4.9207 13.354632,5.9911 19.895962,3.23635 9.158064,-3.48812 15.483064,-11.42829 20.799874,-19.29903 11.86434,-17.09268 19.05934,-36.75288 28.36262,-55.22018 z"
           style="fill:#ffffff;fill-opacity:1;stroke:none;stroke-width:0.97172701;stroke-opacity:1" />
        <path
           sodipodi:nodetypes="cccccccccc"
           inkscape:connector-curvature="0"
           style="fill:#aea99f;fill-opacity:1;stroke:none;stroke-width:0.97172701;stroke-opacity:1"
           d="m 137.64601,298.80521 c -18.3654,14.55134 -33.05545,22.41552 -51.837589,29.18031 -5.668593,2.42556 -11.743691,5.50377 -14.377129,11.45566 -2.711352,5.63098 -1.715768,12.03975 1.394577,17.25363 0.03467,-2.14145 0.832954,-4.29728 2.577458,-5.96204 5.78876,-6.44655 13.328608,-10.67036 19.960735,-15.5653 l 0.01587,-0.0135 0.01587,-0.0107 c 15.348728,-10.54102 29.738478,-22.58634 42.250188,-36.33844 z"
           id="path4313" />
      </g>
    </g>
    <rect
       style="fill:#005f0f;fill-opacity:1;stroke:none;stroke-width:2;stroke-miterlimit:4;stroke-dasharray:none;stroke-opacity:1"
       id="rect8143"
       width="740"
       height="150"
       x="1.6345654"
       y="446.646"
       ry="0"
       inkscape:export-xdpi="300"
       inkscape:export-ydpi="300" />
    <rect
       ry="0"
       y="647.47986"
       x="1.6345654"
       height="150"
       width="740"
       id="rect8177"
       style="fill:#333333;fill-opacity:1;stroke:none;stroke-width:2;stroke-miterlimit:4;stroke-dasharray:none;stroke-opacity:1"
       inkscape:export-xdpi="300.04053"
       inkscape:export-ydpi="300.04053" />
    <g
       id="g4286"
       transform="translate(-1.2198914,-12.537346)"
       inkscape:export-xdpi="300"
       inkscape:export-ydpi="300">
      <path
         sodipodi:open="true"
         d="m 122.26549,571.02923 a 21.532141,21.532141 0 0 1 -0.002,0.0123"
         sodipodi:end="0.18880423"
         sodipodi:start="0.1882215"
         sodipodi:ry="21.532141"
         sodipodi:rx="21.532141"
         sodipodi:cy="567.00031"
         sodipodi:cx="101.11364"
         sodipodi:type="arc"
         id="path8151"
         style="fill:#ffffff;fill-opacity:1"
         inkscape:export-filename="C:\Users\dfernandez\Desktop\thymeleaf_new.png"
         inkscape:export-xdpi="283.16165"
         inkscape:export-ydpi="283.16165" />
      <text
         xml:space="preserve"
         style="font-style:normal;font-weight:normal;font-size:112.82263947px;line-height:125%;font-family:sans-serif;letter-spacing:0px;word-spacing:0px;fill:#ffffff;fill-opacity:1;stroke:none;stroke-width:1px;stroke-linecap:butt;stroke-linejoin:miter;stroke-opacity:1"
         x="174.59401"
         y="570.7074"
         id="text4211"
         sodipodi:linespacing="125%"
         inkscape:export-filename="C:\Users\dfernandez\Desktop\thymeleaf_new.png"
         inkscape:export-xdpi="283.16165"
         inkscape:export-ydpi="283.16165"><tspan
           sodipodi:role="line"
           id="tspan4213"
           x="174.59401"
           y="570.7074"
           style="font-style:italic;font-variant:normal;font-weight:normal;font-stretch:normal;font-size:119.32006073px;font-family:Ubuntu;-inkscape-font-specification:'Ubuntu Italic';letter-spacing:-3.21761966px;fill:#ffffff;fill-opacity:1"
           dx="0"
           rotate="0 0 0 0 0 0 0 0 0 0 0"
           dy="0">thymeleaf </tspan></text>
      <rect
         ry="8.532815"
         y="474.19614"
         x="44.025024"
         height="119.97438"
         width="119.77252"
         id="rect4215"
         style="fill:#005f0f;fill-opacity:1;stroke:#ffffff;stroke-width:4;stroke-miterlimit:4;stroke-dasharray:none;stroke-opacity:1"
         inkscape:export-filename="C:\Users\dfernandez\Desktop\thymeleaf_new.png"
         inkscape:export-xdpi="283.16165"
         inkscape:export-ydpi="283.16165" />
      <path
         sodipodi:open="true"
         d="m 119.68009,567.04528 a 21.532141,21.532141 0 0 1 -0.002,0.0123"
         sodipodi:end="0.18880423"
         sodipodi:start="0.1882215"
         sodipodi:ry="21.532141"
         sodipodi:rx="21.532141"
         sodipodi:cy="563.01636"
         sodipodi:cx="98.528236"
         sodipodi:type="arc"
         id="path4217"
         style="fill:#ffffff;fill-opacity:1"
         inkscape:export-filename="C:\Users\dfernandez\Desktop\thymeleaf_new.png"
         inkscape:export-xdpi="283.16165"
         inkscape:export-ydpi="283.16165" />
      <path
         inkscape:connector-curvature="0"
         id="path4221"
         d="m 146.10611,490.55476 c -14.75059,18.0753 -32.76516,33.21447 -51.976192,46.33833 -6.245302,4.47053 -13.139806,8.44942 -17.941231,14.57134 -1.833821,3.22185 -2.276372,7.7589 0.858967,10.37319 5.221507,4.9207 13.354632,5.9911 19.895962,3.23635 9.158064,-3.48812 15.483064,-11.42829 20.799874,-19.29903 11.86434,-17.09268 19.05934,-36.75288 28.36262,-55.22018 z"
         style="fill:#ffffff;fill-opacity:1;stroke:none;stroke-width:0.97172701;stroke-opacity:1" />
      <path
         sodipodi:nodetypes="cccccccccc"
         inkscape:connector-curvature="0"
         style="fill:#aea99f;fill-opacity:1;stroke:none;stroke-width:0.97172701;stroke-opacity:1"
         d="m 137.64601,496.80521 c -18.3654,14.55134 -33.05545,22.41552 -51.837589,29.18031 -5.668593,2.42556 -11.743691,5.50377 -14.377129,11.45566 -2.711352,5.63098 -1.715768,12.03975 1.394577,17.25363 0.03467,-2.14145 0.832954,-4.29728 2.577458,-5.96204 5.78876,-6.44655 13.328608,-10.67036 19.960735,-15.5653 l 0.01587,-0.0135 0.01587,-0.0107 c 15.348728,-10.54102 29.738478,-22.58634 42.250188,-36.33844 z"
         id="path4223" />
    </g>
    <g
       id="g4295"
       transform="translate(-1.2198914,-3.703468)"
       inkscape:export-xdpi="300.04053"
       inkscape:export-ydpi="300.04053">
      <path
         inkscape:export-ydpi="283.16165"
         inkscape:export-xdpi="283.16165"
         inkscape:export-filename="C:\Users\dfernandez\Desktop\thymeleaf_new.png"
         style="fill:#ffffff;fill-opacity:1"
         id="path8185"
         sodipodi:type="arc"
         sodipodi:cx="101.11364"
         sodipodi:cy="758.66809"
         sodipodi:rx="21.532141"
         sodipodi:ry="21.532141"
         sodipodi:start="0.1882215"
         sodipodi:end="0.18880423"
         d="m 122.26549,762.69701 a 21.532141,21.532141 0 0 1 -0.002,0.0123"
         sodipodi:open="true" />
      <path
         inkscape:export-ydpi="283.16165"
         inkscape:export-xdpi="283.16165"
         inkscape:export-filename="C:\Users\dfernandez\Desktop\thymeleaf_new.png"
         style="fill:#ffffff;fill-opacity:1"
         id="path4242"
         sodipodi:type="arc"
         sodipodi:cx="101.11364"
         sodipodi:cy="759.00031"
         sodipodi:rx="21.532141"
         sodipodi:ry="21.532141"
         sodipodi:start="0.1882215"
         sodipodi:end="0.18880423"
         d="m 122.26549,763.02923 a 21.532141,21.532141 0 0 1 -0.002,0.0123"
         sodipodi:open="true" />
      <text
         inkscape:export-ydpi="283.16165"
         inkscape:export-xdpi="283.16165"
         inkscape:export-filename="C:\Users\dfernandez\Desktop\thymeleaf_new.png"
         sodipodi:linespacing="125%"
         id="text4244"
         y="762.7074"
         x="174.59401"
         style="font-style:normal;font-weight:normal;font-size:112.82263947px;line-height:125%;font-family:sans-serif;letter-spacing:0px;word-spacing:0px;fill:#aea99f;fill-opacity:1;stroke:none;stroke-width:1px;stroke-linecap:butt;stroke-linejoin:miter;stroke-opacity:1"
         xml:space="preserve"><tspan
           dy="0"
           rotate="0 0 0 0 0 0 0 0 0 0 0"
           dx="0"
           style="font-style:italic;font-variant:normal;font-weight:normal;font-stretch:normal;font-size:119.32006073px;font-family:Ubuntu;-inkscape-font-specification:'Ubuntu Italic';letter-spacing:-3.21761966px;fill:#aea99f;fill-opacity:1"
           y="762.7074"
           x="174.59401"
           id="tspan4246"
           sodipodi:role="line">thymeleaf </tspan></text>
      <rect
         inkscape:export-ydpi="283.16165"
         inkscape:export-xdpi="283.16165"
         inkscape:export-filename="C:\Users\dfernandez\Desktop\thymeleaf_new.png"
         style="fill:#005f0f;fill-opacity:1;stroke:#ffffff;stroke-width:4;stroke-miterlimit:4;stroke-dasharray:none;stroke-opacity:1"
         id="rect4248"
         width="119.77252"
         height="119.97438"
         x="44.025024"
         y="666.19617"
         ry="8.532815" />
      <path
         inkscape:export-ydpi="283.16165"
         inkscape:export-xdpi="283.16165"
         inkscape:export-filename="C:\Users\dfernandez\Desktop\thymeleaf_new.png"
         style="fill:#ffffff;fill-opacity:1"
         id="path4250"
         sodipodi:type="arc"
         sodipodi:cx="98.528236"
         sodipodi:cy="755.01636"
         sodipodi:rx="21.532141"
         sodipodi:ry="21.532141"
         sodipodi:start="0.1882215"
         sodipodi:end="0.18880423"
         d="m 119.68009,759.04528 a 21.532141,21.532141 0 0 1 -0.002,0.0123"
         sodipodi:open="true" />
      <path
         style="fill:#ffffff;fill-opacity:1;stroke:none;stroke-width:0.97172701;stroke-opacity:1"
         d="m 146.10611,682.55476 c -14.75059,18.0753 -32.76516,33.21447 -51.976192,46.33833 -6.245302,4.47053 -13.139806,8.44942 -17.941231,14.57134 -1.833821,3.22185 -2.276372,7.7589 0.858967,10.37319 5.221507,4.9207 13.354632,5.9911 19.895962,3.23635 9.158064,-3.48812 15.483064,-11.42829 20.799874,-19.29903 11.86434,-17.09268 19.05934,-36.75288 28.36262,-55.22018 z"
         id="path4252"
         inkscape:connector-curvature="0" />
      <path
         id="path4254"
         d="m 137.64601,688.80521 c -18.3654,14.55134 -33.05545,22.41552 -51.837589,29.18031 -5.668593,2.42556 -11.743691,5.50377 -14.377129,11.45566 -2.711352,5.63098 -1.715768,12.03975 1.394577,17.25363 0.03467,-2.14145 0.832954,-4.29728 2.577458,-5.96204 5.78876,-6.44655 13.328608,-10.67036 19.960735,-15.5653 l 0.01587,-0.0135 0.01587,-0.0107 c 15.348728,-10.54102 29.738478,-22.58634 42.250188,-36.33844 z"
         style="fill:#aea99f;fill-opacity:1;stroke:none;stroke-width:0.97172701;stroke-opacity:1"
         inkscape:connector-curvature="0"
         sodipodi:nodetypes="cccccccccc" />
    </g>
    <rect
       inkscape:export-ydpi="489.29678"
       inkscape:export-xdpi="489.29678"
       inkscape:export-filename="C:\Users\dfernandez\Desktop\thymeleaf_new.png"
       style="fill:#005f0f;fill-opacity:1;stroke:none;stroke-width:1.29999995;stroke-miterlimit:4;stroke-dasharray:none;stroke-opacity:1"
       id="rect4256"
       width="183.93742"
       height="184.24744"
       x="256.68152"
       y="28.212856"
       ry="13.104041" />
    <path
       inkscape:export-ydpi="489.29678"
       inkscape:export-xdpi="489.29678"
       inkscape:export-filename="C:\Users\dfernandez\Desktop\thymeleaf_new.png"
       style="fill:#ffffff;fill-opacity:1"
       id="path4258"
       sodipodi:type="arc"
       sodipodi:cx="340.38336"
       sodipodi:cy="164.61612"
       sodipodi:rx="33.067406"
       sodipodi:ry="33.067406"
       sodipodi:start="0.1882215"
       sodipodi:end="0.18880423"
       d="m 372.86675,170.80343 a 33.067406,33.067406 0 0 1 -0.004,0.0189"
       sodipodi:open="true" />
    <path
       style="fill:#ffffff;fill-opacity:1;stroke:none;stroke-width:0.97172701;stroke-opacity:1"
       d="m 413.4498,53.335183 c -22.65282,27.758656 -50.31821,51.008227 -79.82104,71.162847 -9.59106,6.86549 -20.1791,12.97597 -27.55276,22.37754 -2.81624,4.94787 -3.49588,11.91552 1.31913,15.93035 8.01879,7.55683 20.50902,9.20067 30.55469,4.97014 14.06425,-5.35679 23.7777,-17.55069 31.94285,-29.63797 18.22034,-26.24962 29.26987,-56.442248 43.55713,-84.802907 z"
       id="path4262"
       inkscape:connector-curvature="0" />
    <path
       id="path4264"
       d="m 400.45743,62.934143 c -28.20417,22.346829 -50.76402,34.424032 -79.60819,44.812877 -8.70538,3.72499 -18.03505,8.45227 -22.07928,17.59272 -4.16389,8.64763 -2.63495,18.48972 2.14168,26.4968 0.0532,-3.28867 1.27919,-6.59943 3.95826,-9.15604 8.88993,-9.90012 20.46905,-16.38672 30.65416,-23.90399 l 0.0244,-0.0207 0.0244,-0.0164 C 359.1442,102.55125 381.24287,84.052977 400.4574,62.93356 Z"
       style="fill:#aea99f;fill-opacity:1;stroke:none;stroke-width:0.97172701;stroke-opacity:1"
       inkscape:connector-curvature="0"
       sodipodi:nodetypes="cccccccccc" />
  </g>
</svg>
