<?xml version="1.0" encoding="UTF-8" standalone="no"?>
<!-- Created with Inkscape (http://www.inkscape.org/) -->

<svg
   xmlns:dc="http://purl.org/dc/elements/1.1/"
   xmlns:cc="http://creativecommons.org/ns#"
   xmlns:rdf="http://www.w3.org/1999/02/22-rdf-syntax-ns#"
   xmlns:svg="http://www.w3.org/2000/svg"
   xmlns="http://www.w3.org/2000/svg"
   xmlns:sodipodi="http://sodipodi.sourceforge.net/DTD/sodipodi-0.dtd"
   xmlns:inkscape="http://www.inkscape.org/namespaces/inkscape"
   width="744.09448819"
   height="1052.3622047"
   id="svg2"
   version="1.1"
   inkscape:version="0.48.0 r9654"
   sodipodi:docname="stsm.svg">
  <defs
     id="defs4" />
  <sodipodi:namedview
     id="base"
     pagecolor="#ffffff"
     bordercolor="#666666"
     borderopacity="1.0"
     inkscape:pageopacity="0.0"
     inkscape:pageshadow="2"
     inkscape:zoom="1.4744919"
     inkscape:cx="375.74226"
     inkscape:cy="714.48489"
     inkscape:document-units="px"
     inkscape:current-layer="layer1"
     showgrid="false"
     inkscape:window-width="1400"
     inkscape:window-height="997"
     inkscape:window-x="-4"
     inkscape:window-y="-4"
     inkscape:window-maximized="1" />
  <metadata
     id="metadata7">
    <rdf:RDF>
      <cc:Work
         rdf:about="">
        <dc:format>image/svg+xml</dc:format>
        <dc:type
           rdf:resource="http://purl.org/dc/dcmitype/StillImage" />
        <dc:title></dc:title>
      </cc:Work>
    </rdf:RDF>
  </metadata>
  <g
     inkscape:label="Layer 1"
     inkscape:groupmode="layer"
     id="layer1">
    <text
       xml:space="preserve"
       style="font-size:30.21272087px;font-style:oblique;font-weight:normal;line-height:125%;letter-spacing:0px;word-spacing:0px;fill:#000000;fill-opacity:1;stroke:none;font-family:Sans;-inkscape-font-specification:OFL Sorts Mill Goudy Bold Oblique"
       x="265.97577"
       y="222.32552"
       id="text2985"
       sodipodi:linespacing="125%"
       inkscape:export-filename="C:\Documents and Settings\Daniel\workspace36\thymeleaf-dist\src\artwork\stsmlogo.png"
       inkscape:export-xdpi="73.917229"
       inkscape:export-ydpi="73.917229"><tspan
         sodipodi:role="line"
         id="tspan2987"
         x="265.97577"
         y="222.32552"
         style="font-size:60.42544174px;font-style:oblique;font-variant:normal;font-weight:bold;font-stretch:normal;fill:#352726;fill-opacity:1;font-family:OFL Sorts Mill Goudy;-inkscape-font-specification:OFL Sorts Mill Goudy Bold Oblique">Spring Thyme</tspan></text>
    <text
       xml:space="preserve"
       style="font-size:66.88153839px;font-style:normal;font-weight:normal;line-height:125%;letter-spacing:0px;word-spacing:0px;fill:#352726;fill-opacity:1;stroke:none;font-family:Sans"
       x="265.39426"
       y="262.07599"
       id="text3772"
       sodipodi:linespacing="125%"
       inkscape:export-filename="C:\Documents and Settings\Daniel\workspace36\thymeleaf-dist\src\artwork\stsmlogo.png"
       inkscape:export-xdpi="73.917229"
       inkscape:export-ydpi="73.917229"><tspan
         sodipodi:role="line"
         id="tspan3774"
         x="265.39426"
         y="262.07599"
         style="font-size:20px;font-style:normal;font-variant:normal;font-weight:normal;font-stretch:normal;fill:#352726;fill-opacity:1;font-family:OFL Sorts Mill Goudy;-inkscape-font-specification:OFL Sorts Mill Goudy">S E E D S T A R T E R       M A N A G E R</tspan></text>
    <rect
       style="fill:#352726;fill-opacity:1;fill-rule:evenodd;stroke:#000000;stroke-width:0;stroke-linecap:butt;stroke-linejoin:miter;stroke-miterlimit:4;stroke-opacity:1;stroke-dasharray:none"
       id="rect2985-0-9-2"
       width="97.318939"
       height="97.318962"
       x="154.5103"
       y="168.54872"
       ry="8.2419939"
       inkscape:export-filename="C:\Documents and Settings\Daniel\workspace36\thymeleaf-dist\src\artwork\stsmlogo.png"
       inkscape:export-xdpi="73.917229"
       inkscape:export-ydpi="73.917229" />
    <g
       id="g3938-5-5"
       transform="matrix(1.0103322,0,0,1.0103322,-400.84061,-116.79129)"
       inkscape:export-filename="C:\Documents and Settings\Daniel\workspace36\thymeleaf-dist\src\artwork\stsmlogo.png"
       inkscape:export-xdpi="73.917229"
       inkscape:export-ydpi="73.917229"
       style="fill:#99cc33;fill-opacity:1">
      <path
         sodipodi:nodetypes="csscccccccccccccccccc"
         inkscape:connector-curvature="0"
         id="path3002-7-1-1"
         d="m 590.76313,353.32056 c -1.82897,0.55752 -2.29454,0.87122 -7.61703,0.23533 -0.11142,-0.0133 -1.48178,-0.50318 -1.59563,-0.53585 -3.35836,-0.96373 -9.2372,-3.1292 -20.08177,-7.65443 -3.21698,-1.24205 -8.62471,-1.88267 -8.58629,-5.11389 -0.2621,-2.9108 1.1717,-4.22936 2.27284,-4.98763 2.90081,-2.26733 6.79159,-3.06899 9.59645,-3.53554 4.43986,-0.25047 7.69068,-0.59762 12.87944,1.26269 4.31865,1.20588 7.1101,3.52246 9.59645,6.06092 l 3.59681,4.4437 c -4.03993,-2.17441 -8.04729,-4.0723 -11.05773,-5.49822 -2.8621,-1.38481 -6.94112,-2.08607 -9.37673,-2.01487 -2.24024,0.0127 -3.59998,0.26268 -6.02752,0.63932 -2.62234,0.59688 -1.78851,0.36863 -4.91196,1.33712 4.20889,-1.03757 6.8268,-1.31696 10.33128,-1.40043 3.41911,0.0793 4.56135,0.51392 8.41865,1.58983 2.42278,0.85435 7.23839,3.53415 10.79497,5.5755 2.66073,1.79684 2.98021,2.84249 3.78807,4.9245 0.21089,1.4406 1.14094,1.67234 -0.0631,3.15672 -0.1872,0.31348 -1.15339,1.40593 -1.95716,1.51523 z"
         style="fill:#99cc33;fill-opacity:1;stroke:#000000;stroke-width:0;stroke-linecap:round;stroke-linejoin:round;stroke-miterlimit:4;stroke-opacity:1;stroke-dasharray:none" />
      <path
         sodipodi:nodetypes="ccccccc"
         inkscape:connector-curvature="0"
         id="path3790-0-7-7"
         d="m 593.92483,348.41145 c 1.14095,-0.39455 1.16928,-0.52404 6.71716,-4.76464 1.54762,-1.89189 3.25307,-2.26905 4.80069,-5.5925 0.52471,-2.46477 -1.39918,-2.19073 -3.83928,-1.33929 -2.31579,1.17711 -3.88623,1.56045 -6.78572,4.28572 -0.77751,0.84894 -1.80437,1.52985 -2.23214,3.125 -0.48193,0.76565 -0.0713,4.56297 1.33929,4.28571 z"
         style="fill:#99cc33;fill-opacity:1;stroke:#000000;stroke-width:0;stroke-linecap:round;stroke-linejoin:round;stroke-miterlimit:4;stroke-opacity:1;stroke-dasharray:none" />
      <path
         sodipodi:nodetypes="ccscccsssssc"
         inkscape:connector-curvature="0"
         id="path3792-3-1-1"
         d="m 591.66111,343.16208 c -2.66616,-4.07466 -2.2619,-3.125 -3.39285,-4.6875 -1.21446,-1.21446 -0.46825,-7.67551 -0.44642,-7.90178 0.17832,-1.84787 2.2992,-7.14669 3.12501,-6.51786 2.30425,-1.14438 4.9144,6.00894 5.44643,8.88393 0.52561,1.4121 0.80898,4.18471 -0.22322,5.3125 -0.38158,0.32489 -0.63818,0.75278 -1.79678,1.81918 -0.23928,0.22025 -0.60758,-3.81184 -0.96552,-5.56367 -0.68121,-3.33397 -1.74952,-8.346 -1.7133,-8.09667 0.59774,4.1153 1.07934,6.28324 1.37255,8.17558 0.31216,2.01465 0.84491,5.98908 0.84491,5.98908 -0.91842,0.61003 -1.50981,1.76596 -2.25081,2.58721 z"
         style="fill:#99cc33;fill-opacity:1;stroke:#000000;stroke-width:0;stroke-linecap:round;stroke-linejoin:round;stroke-miterlimit:4;stroke-opacity:1;stroke-dasharray:none" />
      <path
         sodipodi:nodetypes="cccccccccccccccccccccccccccccccccccc"
         inkscape:connector-curvature="0"
         id="path3796-4-1-1"
         d="m 598.67624,336.05981 c -0.65604,-1.54191 -0.25632,-2.8299 0.10608,-3.54324 0.30211,-0.51138 1.72883,-2.3402 3.30985,-4.15852 3.18167,-3.56317 4.70586,-4.76468 6.25901,-6.04685 4.66637,-3.47976 5.6711,-3.9763 9.50521,-6.28022 2.93045,-1.59495 8.18891,-3.99156 12.45437,-5.47398 2.93843,-1.00881 7.13823,-1.29518 8.59287,-1.06085 1.33073,0.14404 2.56938,0.45574 3.30985,1.86709 0.43702,0.86445 0.80317,1.85272 0.33947,2.46117 -0.13304,0.45518 -2.08237,0.38093 -4.77382,2.31265 -1.2801,1.03963 -1.85115,1.16535 -3.1189,3.96758 -1.47192,3.82682 -2.01054,5.32921 -3.5593,7.8936 -1.21708,2.12216 -2.54726,4.11968 -4.07881,5.77013 -0.9748,1.23971 -4.62922,5.28593 -5.27725,5.66218 -1.37464,1.45941 -6.97685,5.05165 -7.68783,5.4873 -1.59077,0.91584 -3.73567,1.64932 -5.16238,1.72735 -2.65031,0.0822 -3.23157,-0.29112 -4.35224,-0.65069 -1.04109,-0.52984 -2.14266,-1.08992 -2.7218,-1.38878 -0.65958,-0.55721 0.60993,-1.11441 1.01415,-1.67162 1.11371,-0.91383 1.66092,-1.52929 2.29658,-2.42175 0.39871,-0.81602 0.85521,-1.40089 1.183,-2.50059 0.18215,-0.97972 0.3115,-1.26018 0.0849,-2.03683 -0.42609,-0.60457 -0.2429,-0.3117 -0.55164,-0.76381 0.82485,-1.20438 2.13525,-2.67518 3.11731,-3.80096 2.46386,-2.74997 3.87004,-4.24892 6.93696,-7.20444 0.58544,-0.6103 3.22126,-3.01941 5.63343,-4.92234 1.2492,-0.98204 1.75658,-1.31292 3.15709,-2.06374 l 4.27818,-2.39476 c -1.39015,0.58682 -3.24493,1.35607 -4.63508,2.0908 -1.61071,0.85789 -2.10295,1.16046 -3.29808,2.10699 -2.81572,2.05395 -5.57416,4.73736 -5.91898,5.06899 -2.92573,2.6905 -5.21221,5.0631 -7.55413,7.58075 -1.00978,1.12674 -2.01904,2.25557 -2.98972,3.53871 l -1.57006,0.16973 c -1.46579,0.28797 -1.78729,0.48674 -3.14011,1.10329 -1.09979,0.3668 -1.06449,-0.0862 -1.18818,-0.42434 z"
         style="fill:#99cc33;fill-opacity:1;stroke:#000000;stroke-width:0;stroke-linecap:round;stroke-linejoin:round;stroke-miterlimit:4;stroke-opacity:1;stroke-dasharray:none" />
    </g>
  </g>
</svg>
